<?xml version="1.0" encoding="utf-8" ?>
<svg xmlns="http://www.w3.org/2000/svg" xmlns:xlink="http://www.w3.org/1999/xlink" width="27" height="21">
	<defs>
		<clipPath id="clip_0">
			<rect x="-399.92017" y="-1043.96" width="1382.4" height="2865.5999" clip-rule="evenodd"/>
		</clipPath>
	</defs>
	<g clip-path="url(#clip_0)">
		<path fill="rgb(255,255,255)" stroke="none" transform="matrix(0.96 0 0 0.96 0.399902 0.707214)" d="M26.9998 10.2308C26.9998 9.98156 26.8545 9.65068 26.707 9.49011L18.3995 0.336121C18.0116 -0.0797332 17.3833 -0.127925 16.9311 0.294121C16.5268 0.671421 16.5167 1.40728 16.8906 1.817L23.5593 9.15362L1.03846 9.15362C0.464919 9.15362 0 9.63576 0 10.2305C0 10.8253 0.464919 11.3075 1.03846 11.3075L23.5593 11.3075L16.8906 18.6442C16.5168 19.0538 16.5433 19.7716 16.9311 20.167C17.3405 20.5844 18.0176 20.5473 18.3995 20.125L26.707 10.971C26.9511 10.7228 26.9957 10.4836 26.9998 10.2308Z"/>
	</g>
</svg>
