<?xml version="1.0" encoding="utf-8" ?>
<svg xmlns="http://www.w3.org/2000/svg" xmlns:xlink="http://www.w3.org/1999/xlink" width="67" height="36">
	<defs>
		<clipPath id="clip_0">
			<rect x="-1002.73" y="-2200.49" width="1425.6" height="2955.1501" clip-rule="evenodd"/>
		</clipPath>
	</defs>
	<g clip-path="url(#clip_0)">
		<path fill="rgb(236,194,1)" stroke="none" transform="matrix(0.99 0 0 0.99 0.390137 0.973022)" d="M0 0L0.72547 33.4798L32.1107 16.6943L0 0Z"/>
	</g>
	<defs>
		<clipPath id="clip_1">
			<rect x="-1002.73" y="-2200.49" width="1425.6" height="2955.1501" clip-rule="evenodd"/>
		</clipPath>
	</defs>
	<g clip-path="url(#clip_1)">
		<path fill="rgb(91,91,91)" stroke="none" transform="matrix(0.99 0 0 0.99 11.3521 1.07202)" d="M53.8932 2.7729C54.2799 2.57047 54.7457 2.58286 55.1208 2.80678C55.4959 3.03069 55.7246 3.43308 55.7246 3.86851L55.7246 31.039C55.7246 31.4637 55.5067 31.8586 55.1457 32.0859C54.9428 32.2139 54.7099 32.2784 54.477 32.2784C54.2957 32.2784 54.1144 32.2395 53.9456 32.1602L48.5943 29.6583C48.5378 29.6377 48.4837 29.6112 48.4313 29.5823L40.7264 25.9807L40.7264 28.5098C40.7264 32.1991 37.7048 35.2 33.992 35.2L6.73436 35.2C3.02077 35.2 0 32.1991 0 28.5098L0 6.69016C0 3.00095 3.0216 0 6.73436 0L33.9912 0C37.7048 0 40.7255 3.00095 40.7255 6.69016L40.7255 9.69772L53.8932 2.7729ZM38.2312 28.5098C38.2312 30.8324 36.3299 32.7212 33.992 32.7212L6.73436 32.7212C4.39642 32.7212 2.49513 30.8324 2.49513 28.5098L2.49513 6.69017C2.49513 4.36757 4.39642 2.47876 6.73436 2.47876L33.992 2.47876C36.3299 2.47876 38.2312 4.36757 38.2312 6.69017L38.2312 28.5098ZM50.2769 27.7051L53.2295 29.0857L53.2295 5.92671L50.2769 7.48006L50.2769 27.7051ZM47.7818 8.79215L40.7264 12.5028L40.7264 23.2408L47.7818 26.5392L47.7818 8.79215Z" fill-rule="evenodd"/>
	</g>
</svg>
