<?xml version="1.0" encoding="utf-8" ?>
<svg xmlns="http://www.w3.org/2000/svg" xmlns:xlink="http://www.w3.org/1999/xlink" width="60" height="93">
	<defs>
		<clipPath id="clip_0">
			<rect x="-1015" y="-2344" width="1440" height="2985" clip-rule="evenodd"/>
		</clipPath>
	</defs>
	<g clip-path="url(#clip_0)">
		<path fill="rgb(236,194,1)" stroke="none" transform="translate(0.615234 4.1333)" d="M29.6504 56.5333C46.0258 56.5333 59.3007 43.8779 59.3007 28.2667C59.3007 12.6554 46.0258 3.55271e-15 29.6504 3.55271e-15C13.2749 3.55271e-15 0 12.6554 0 28.2667C0 43.8779 13.2749 56.5333 29.6504 56.5333Z"/>
	</g>
	<defs>
		<clipPath id="clip_1">
			<rect x="-1015" y="-2344" width="1440" height="2985" clip-rule="evenodd"/>
		</clipPath>
	</defs>
	<g clip-path="url(#clip_1)">
		<path fill="rgb(255,255,255)" stroke="none" transform="translate(5.64063 8.92432)" d="M24.6249 46.9514C38.2248 46.9514 49.2497 36.441 49.2497 23.4757C49.2497 10.5104 38.2248 0 24.6249 0C11.0249 0 0 10.5104 0 23.4757C0 36.441 11.0249 46.9514 24.6249 46.9514Z"/>
	</g>
	<defs>
		<clipPath id="clip_2">
			<rect x="-1015" y="-2344" width="1440" height="2985" clip-rule="evenodd"/>
		</clipPath>
	</defs>
	<g clip-path="url(#clip_2)">
		<path fill="rgb(236,194,1)" stroke="none" transform="translate(9.66113 12.7571)" d="M20.6045 39.2859C31.984 39.2859 41.209 30.4914 41.209 19.6429C41.209 8.79444 31.984 -3.55271e-15 20.6045 -3.55271e-15C9.22494 -3.55271e-15 0 8.79444 0 19.6429C0 30.4914 9.22494 39.2859 20.6045 39.2859Z"/>
	</g>
	<defs>
		<clipPath id="clip_3">
			<rect x="-1015" y="-2344" width="1440" height="2985" clip-rule="evenodd"/>
		</clipPath>
	</defs>
	<g clip-path="url(#clip_3)">
		<path fill="rgb(255,255,255)" stroke="none" transform="translate(14.6865 17.548)" d="M15.579 29.704C24.183 29.704 31.158 23.0545 31.158 14.852C31.158 6.64946 24.183 3.55271e-15 15.579 3.55271e-15C6.97496 3.55271e-15 -3.55271e-15 6.64946 -3.55271e-15 14.852C-3.55271e-15 23.0545 6.97496 29.704 15.579 29.704Z"/>
	</g>
	<defs>
		<clipPath id="clip_4">
			<rect x="-1015" y="-2344" width="1440" height="2985" clip-rule="evenodd"/>
		</clipPath>
	</defs>
	<g clip-path="url(#clip_4)">
		<path fill="rgb(255,255,255)" stroke="none" transform="matrix(-1 8.74228e-08 -8.74228e-08 -1 44.2515 61.7333)" d="M8.52651e-14 -8.52651e-14L9.81294 22.4L19.5796 22.4L29.0909 0.399837L8.52651e-14 -8.52651e-14Z"/>
	</g>
	<defs>
		<clipPath id="clip_5">
			<rect x="-1015" y="-2344" width="1440" height="2985" clip-rule="evenodd"/>
		</clipPath>
	</defs>
	<g clip-path="url(#clip_5)">
		<path fill="rgb(91,91,91)" stroke="none" transform="translate(15.4468 28.6666)" d="M29.4292 32.0955C29.4292 39.6924 22.8413 45.8507 14.7146 45.8507C6.58784 45.8507 0 39.6924 0 32.0955L0 13.7552C0 6.15833 6.58784 0 14.7146 0C22.8413 0 29.4292 6.15833 29.4292 13.7552L29.4292 32.0955ZM14.7146 2.29254C7.95323 2.29254 2.45243 7.4347 2.45243 13.7552L2.45243 32.0955C2.45243 38.416 7.95323 43.5582 14.7146 43.5582C21.4759 43.5582 26.9767 38.416 26.9767 32.0955L26.9767 13.7552C26.9767 7.4347 21.4759 2.29254 14.7146 2.29254Z" fill-rule="evenodd"/>
	</g>
	<defs>
		<clipPath id="clip_6">
			<rect x="-1015" y="-2344" width="1440" height="2985" clip-rule="evenodd"/>
		</clipPath>
	</defs>
	<g clip-path="url(#clip_6)">
		<path fill="rgb(91,91,91)" stroke="none" transform="translate(7.32861 51.592)" d="M41.2121 0L40 0C39.3306 0 38.7879 0.510866 38.7879 1.14096C38.7879 1.77106 39.3306 2.28192 40 2.28192L41.2121 2.28192L41.2121 8.85073C41.2121 18.8684 32.7609 27.2282 22.1194 27.3808C11.2882 27.5365 2.42424 19.288 2.42424 9.1277L2.42424 2.28192L3.63636 2.28192C4.30576 2.28192 4.84848 1.77106 4.84848 1.14096C4.84848 0.510866 4.30576 0 3.63636 0L2.42424 0L0 0L0 9.1277C0 20.0872 9.1203 29.0395 20.6061 29.6319L20.6061 38.7927L8.48485 38.7927C7.81545 38.7927 7.27273 39.3036 7.27273 39.9337C7.27273 40.5638 7.81545 41.0746 8.48485 41.0746L35.1515 41.0746C35.8209 41.0746 36.3636 40.5638 36.3636 39.9337C36.3636 39.3036 35.8209 38.7927 35.1515 38.7927L23.0303 38.7927L23.0303 29.6319C34.5161 29.0395 43.6364 20.0872 43.6364 9.1277L43.6364 0L41.2121 0Z"/>
	</g>
	<defs>
		<clipPath id="clip_7">
			<rect x="-1015" y="-2344" width="1440" height="2985" clip-rule="evenodd"/>
		</clipPath>
	</defs>
	<g clip-path="url(#clip_7)">
		<path fill="rgb(91,91,91)" stroke="none" transform="translate(23.5654 44.9054)" d="M1.18393 1.91045L13.0233 1.91045C13.6771 1.91045 14.2072 1.48275 14.2072 0.955224C14.2072 0.427701 13.6771 0 13.0233 0L1.18393 0C0.530106 0 0 0.427701 0 0.955224C0 1.48275 0.530106 1.91045 1.18393 1.91045"/>
	</g>
	<defs>
		<clipPath id="clip_8">
			<rect x="-1015" y="-2344" width="1440" height="2985" clip-rule="evenodd"/>
		</clipPath>
	</defs>
	<g clip-path="url(#clip_8)">
		<path fill="rgb(91,91,91)" stroke="none" transform="translate(23.5654 48.7263)" d="M1.18393 1.91045L13.0233 1.91045C13.6771 1.91045 14.2072 1.48275 14.2072 0.955224C14.2072 0.427701 13.6771 0 13.0233 0L1.18393 0C0.530106 0 0 0.427701 0 0.955224C0 1.48275 0.530106 1.91045 1.18393 1.91045"/>
	</g>
	<defs>
		<clipPath id="clip_9">
			<rect x="-1015" y="-2344" width="1440" height="2985" clip-rule="evenodd"/>
		</clipPath>
	</defs>
	<g clip-path="url(#clip_9)">
		<path fill="rgb(91,91,91)" stroke="none" transform="translate(23.5654 52.5472)" d="M1.18393 1.91045L13.0233 1.91045C13.6771 1.91045 14.2072 1.48275 14.2072 0.955224C14.2072 0.427701 13.6771 0 13.0233 0L1.18393 0C0.530106 0 0 0.427701 0 0.955224C0 1.48275 0.530106 1.91045 1.18393 1.91045"/>
	</g>
	<defs>
		<clipPath id="clip_10">
			<rect x="-1015" y="-2344" width="1440" height="2985" clip-rule="evenodd"/>
		</clipPath>
	</defs>
	<g clip-path="url(#clip_10)">
		<path fill="rgb(91,91,91)" stroke="none" transform="translate(23.5654 56.3682)" d="M1.18393 1.91045L13.0233 1.91045C13.6771 1.91045 14.2072 1.48275 14.2072 0.955224C14.2072 0.427701 13.6771 0 13.0233 0L1.18393 0C0.530106 0 0 0.427701 0 0.955224C0 1.48275 0.530106 1.91045 1.18393 1.91045"/>
	</g>
	<defs>
		<clipPath id="clip_11">
			<rect x="-1015" y="-2344" width="1440" height="2985" clip-rule="evenodd"/>
		</clipPath>
	</defs>
	<g clip-path="url(#clip_11)">
		<path fill="rgb(255,255,255)" stroke="none" transform="translate(15.1606 0.93335)" d="M-1.77636e-15 0L9.81294 22.4L19.5796 22.4L29.0909 0.399837L-1.77636e-15 0Z"/>
	</g>
</svg>
