<?xml version="1.0" encoding="utf-8" ?>
<svg xmlns="http://www.w3.org/2000/svg" xmlns:xlink="http://www.w3.org/1999/xlink" width="26" height="27">
	<defs>
		<clipPath id="clip_0">
			<rect x="-1028.46" y="-65.97998" width="1411.2001" height="2925.3" clip-rule="evenodd"/>
		</clipPath>
	</defs>
	<g clip-path="url(#clip_0)">
		<path fill="rgb(205,205,205)" stroke="none" transform="matrix(0.932035 0.302837 -0.302837 0.932035 6.89941 0.660004)" d="M6.21502 4.93364C7.3417 4.54958 8.60306 4.32374 9.99988 4.32374C11.3967 4.32374 12.6586 4.54958 13.7847 4.93364C13.7405 3.8433 13.2087 2.87434 12.398 2.22483C12.4301 1.55009 12.9994 1.00934 13.7003 1.00934L13.7003 0C12.6275 0 11.7231 0.706031 11.4454 1.66566C10.9996 1.48574 10.5114 1.38607 9.99936 1.38607C9.49352 1.38607 9.011 1.48372 8.56965 1.65985C8.28992 0.703255 7.38702 0.000252334 6.31655 0.000252334L6.31655 1.00959C7.01276 1.00959 7.57791 1.54302 7.61728 2.21146C6.79752 2.85995 6.25983 3.83573 6.21502 4.93364ZM9.61137 5.09311L9.61137 12.0838C8.54996 15.7694 5.53072 17.0714 3.30197 17.0714C2.3066 17.0714 1.46846 16.8113 1.03359 16.3883C-1.96675 13.4638 1.76761 5.35579 9.61137 5.09311ZM10.3884 5.09311L10.3884 12.0835C11.4498 15.7689 14.4693 17.0717 16.6981 17.0717C17.6939 17.0717 18.5316 16.812 18.9667 16.3886C21.9665 13.4638 18.2322 5.35579 10.3884 5.09311ZM9.42385 14.3997C9.60205 14.4065 9.77999 14.41 9.95741 14.41C10.162 14.41 10.3677 14.4047 10.5736 14.3952C10.3609 14.0522 10.1682 13.6821 9.99988 13.2849C9.83101 13.6841 9.63753 14.0553 9.42385 14.3997ZM7.49347 16.4762C8.00786 16.106 8.48547 15.6581 8.90843 15.1287C9.25912 15.1532 9.60904 15.167 9.95741 15.1673C10.3322 15.1673 10.709 15.1519 11.0872 15.1239C11.506 15.6493 11.9787 16.0949 12.4882 16.4635C11.6389 16.6122 10.793 16.6901 9.95741 16.6901C9.14283 16.6901 8.31919 16.6167 7.49347 16.4762ZM9.95741 17.4469C8.82425 17.4469 7.67556 17.3162 6.52867 17.0601C6.25283 17.1986 5.97103 17.3202 5.68405 17.4204C5.84723 17.8014 6.03216 18.1577 6.23444 18.4893C7.48001 18.8072 8.7292 18.9697 9.95741 18.9697C11.2146 18.9697 12.4967 18.7981 13.7775 18.4625C13.9738 18.1383 14.1538 17.7903 14.3131 17.4191C14.0171 17.3157 13.7265 17.19 13.4423 17.0457C12.2745 17.3114 11.1069 17.4469 9.95741 17.4469ZM9.99988 21C8.84109 21 7.7732 20.4105 6.91175 19.4199C7.9312 19.6223 8.95039 19.7267 9.95741 19.727C10.9955 19.727 12.0486 19.6149 13.1033 19.3977C12.2393 20.4017 11.1662 21 9.99988 21Z" fill-rule="evenodd"/>
	</g>
</svg>
