<?xml version="1.0" encoding="utf-8" ?>
<svg xmlns="http://www.w3.org/2000/svg" xmlns:xlink="http://www.w3.org/1999/xlink" width="18" height="19">
	<defs>
		<clipPath id="clip_0">
			<rect x="-801" y="-73" width="1440" height="2985" clip-rule="evenodd"/>
		</clipPath>
	</defs>
	<g clip-path="url(#clip_0)">
		<path fill="rgb(205,205,205)" stroke="none" d="M17.8966 9.74433C17.7013 10.4726 17.2528 11.0627 16.6729 11.4537C16.5421 11.5449 16.4431 11.6758 16.4002 11.8364C16.3573 11.997 16.3774 12.16 16.4458 12.298C16.7515 12.9322 16.8445 13.6675 16.6495 14.3958C16.2187 16.001 14.5673 16.9536 12.9605 16.5235C12.9251 16.514 12.8915 16.5009 12.8564 16.4902C11.6258 16.1657 10.3142 14.6638 9.6002 13.4036L9.6002 14.8438C9.6002 16.0627 10.0646 17.1742 10.8272 18.0153C10.9199 18.1207 10.9781 18.2563 10.9781 18.4063C10.9781 18.734 10.7093 19 10.3781 19C10.2029 19 10.0466 18.9243 9.93679 18.8058C8.9807 17.7567 8.40021 16.3676 8.40021 14.8438L8.40021 13.4036C7.68591 14.6635 6.37432 16.1657 5.18483 16.484C5.10833 16.5003 5.07503 16.5134 5.03933 16.5229C3.43285 16.953 1.78136 16.0004 1.35086 14.3952C1.15557 13.6669 1.24856 12.9316 1.55546 12.3037C1.62296 12.1594 1.64306 11.9964 1.60016 11.8358C1.55726 11.6752 1.45766 11.5449 1.32926 11.4594C0.747269 11.063 0.298773 10.4726 0.103474 9.74433C-0.327322 8.13912 0.62637 6.48909 2.23316 6.05892C2.26886 6.04942 2.30426 6.04408 2.33996 6.03606C3.14215 5.81578 4.19394 6.00994 5.18003 6.36856C4.34484 5.38858 3.59995 4.11202 3.59995 3.11719C3.60415 3.0403 3.59995 3.00497 3.59995 2.96875C3.59995 1.32911 4.94304 0 6.59992 0C7.35142 0 8.03571 0.276094 8.56131 0.728828C8.68281 0.829766 8.8343 0.890625 9.0002 0.890625C9.1661 0.890625 9.3176 0.829766 9.4331 0.729422C9.96439 0.276094 10.6484 5.27356e-16 11.3999 5.27356e-16C13.0565 5.27356e-16 14.3999 1.32911 14.3999 2.96875C14.3999 3.00497 14.3957 3.0403 14.3942 3.07622C14.3999 4.11202 13.6553 5.38858 12.8198 6.36856C13.8059 6.00994 14.8574 5.81578 15.6214 6.02003C15.6958 6.04408 15.7312 6.04942 15.7666 6.05892C17.3737 6.48909 18.3271 8.13912 17.8966 9.74433Z"/>
	</g>
</svg>
