<?xml version="1.0" encoding="utf-8" ?>
<svg xmlns="http://www.w3.org/2000/svg" xmlns:xlink="http://www.w3.org/1999/xlink" width="78" height="58">
	<defs>
		<clipPath id="clip_0">
			<rect x="-677.65601" y="-2354.8594" width="1431.792" height="2967.9856" clip-rule="evenodd"/>
		</clipPath>
	</defs>
	<g clip-path="url(#clip_0)">
		<path fill="rgb(236,194,1)" stroke="none" transform="matrix(0.9943 0 0 0.9943 0.0534668 15.9497)" d="M22.1262 34.6609L8.434 41.8L11.0892 26.6941L0 15.9854L15.3062 13.7609L22.1262 0L28.9463 13.7609L44.2525 15.9854L33.1633 26.6941L35.8185 41.8L22.1262 34.6609Z"/>
	</g>
	<defs>
		<clipPath id="clip_1">
			<rect x="-677.65601" y="-2354.8594" width="1431.792" height="2967.9856" clip-rule="evenodd"/>
		</clipPath>
	</defs>
	<g clip-path="url(#clip_1)">
		<path fill="rgb(91,91,91)" stroke="none" transform="matrix(0.9943 0 0 0.9943 44.0537 0.637451)" d="M30.1643 21.8075C30.1643 23.6179 28.2245 23.8324 27.9864 24.7118C27.7223 25.6799 29.154 26.0675 29.154 27.7663C29.154 29.5538 26.9761 29.5324 26.6773 30.4547C26.3252 31.5487 27.3932 31.8475 27.3932 33.605C27.3932 33.7151 27.3817 33.8209 27.3456 33.9253C27.0483 35.3954 24.8415 35.4354 24.4619 36.0403C24.0564 36.6881 24.5197 37.0913 24.5197 38.61C24.5197 39.4437 23.5729 40.04 22.3706 40.04L8.6596 40.04C7.55406 40.04 6.29986 39.4237 4.97061 38.7716C3.8362 38.2153 2.67293 37.6448 1.44327 37.3716L1.44327 22.1879C5.02257 19.4723 9.66556 15.4368 11.461 10.4948C11.487 10.4204 11.5086 10.3432 11.523 10.266L12.8393 3.08737C13.2752 2.90433 13.6764 2.86 14.4327 2.86C14.7516 2.86 15.8759 4.57171 15.8759 10.01C15.8759 12.0892 15.5021 14.4916 14.7632 17.16L14.4052 17.16C13.6086 17.16 12.962 17.7992 12.962 18.59C12.962 19.3808 13.6086 20.02 14.4052 20.02L27.4221 20.02C28.8422 20.02 30.1643 20.6907 30.1643 21.8075M33.1894 21.8075C33.1894 18.7688 30.7892 17.16 27.4221 17.16L17.7479 17.16C18.4219 14.5388 18.7625 12.1393 18.7625 10.01C18.7625 1.73745 16.4085 0 14.4327 0C13.0659 0 12.1307 0.14157 10.8115 0.91377C10.4507 1.12541 10.201 1.48005 10.126 1.88903L8.70434 9.63391C7.17881 13.7066 3.20838 17.2129 0 19.6725L0 40.0672C1.10554 40.0672 2.35974 40.6821 3.68899 41.3342C5.25782 42.1035 6.87861 42.9 8.6596 42.9L22.3706 42.9C25.2543 42.9 27.4091 40.6349 27.4091 38.61C27.4091 38.2196 27.3672 37.8635 27.2994 37.5418C29.0833 36.8869 30.3028 35.3896 30.3028 33.605C30.3028 32.7542 30.1513 32.0163 29.8381 31.3671C30.9292 30.6034 32.0348 29.355 32.0348 27.885C32.0348 27.0842 31.6609 26.1275 31.1111 25.4755C32.3667 24.5431 33.1894 23.166 33.1894 21.8075"/>
	</g>
	<defs>
		<clipPath id="clip_2">
			<rect x="-677.65601" y="-2354.8594" width="1431.792" height="2967.9856" clip-rule="evenodd"/>
		</clipPath>
	</defs>
	<g clip-path="url(#clip_2)">
		<path fill="rgb(91,91,91)" stroke="none" transform="matrix(0.9943 0 0 0.9943 30.8538 17.0433)" d="M2.87641 26.4L11.5056 26.4C13.092 26.4 14.3821 25.0844 14.3821 23.4667L14.3821 2.93333C14.3821 1.3156 13.092 0 11.5056 0L2.87641 0C1.29007 0 0 1.3156 0 2.93333L0 23.4667C0 25.0844 1.29007 26.4 2.87641 26.4ZM2.87641 23.4667L2.87641 2.93333L11.5056 2.93333L11.5013 23.4667L2.87641 23.4667Z" fill-rule="evenodd"/>
	</g>
</svg>
