<?xml version="1.0" encoding="utf-8" ?>
<svg xmlns="http://www.w3.org/2000/svg" xmlns:xlink="http://www.w3.org/1999/xlink" width="68" height="57">
	<defs>
		<clipPath id="clip_0">
			<rect x="-672.45996" y="-2156.98" width="1411.2001" height="2925.3" clip-rule="evenodd"/>
		</clipPath>
	</defs>
	<g clip-path="url(#clip_0)">
		<path fill="rgb(236,194,1)" stroke="none" transform="matrix(0.98 0 0 0.98 30.2925 23.8251)" d="M2.60758 1.1499C2.60758 1.1499 0.381324 2.02122 0.381324 3.67881C0.381324 5.3364 0.175936 18.406 0.175936 18.406C0.175936 18.406 -0.902689 24.7423 2.2815 26.4333C5.46569 28.1244 20.4282 26.5513 20.4282 26.5513L27.9442 33.6612L28.7146 26.9434C28.7146 26.9434 34.2452 26.5516 34.9155 26.0545C35.5857 25.5574 37.776 24.2609 37.3138 21.7141C36.8516 19.1674 36.903 4.1327 36.903 4.1327C36.903 4.1327 34.6922 -0.292222 31.0794 0.0153192C27.4666 0.32286 2.95152 0.886641 2.95152 0.886641L2.60758 1.1499Z"/>
	</g>
	<defs>
		<clipPath id="clip_1">
			<rect x="-672.45996" y="-2156.98" width="1411.2001" height="2925.3" clip-rule="evenodd"/>
		</clipPath>
	</defs>
	<g clip-path="url(#clip_1)">
		<path fill="rgb(91,91,91)" stroke="none" transform="matrix(0.98 0 0 0.98 0.964355 1.06433)" d="M56.6819 29.0861C59.7448 29.0823 62.2269 26.6134 62.2306 23.5667L62.2306 5.51939C62.2269 2.47001 59.7407 -2.32962e-06 56.6751 0L28.2036 0C25.1407 0.00376371 22.6587 2.47268 22.6549 5.51939L22.6549 23.5667C22.6587 26.6134 25.1407 29.0823 28.2036 29.0861L44.1081 29.0861L49.8834 34.8377C50.5754 35.5211 51.6124 35.724 52.513 35.3522C53.4137 34.9804 54.0015 34.1068 54.0037 33.1368L54.0037 29.0861L56.6819 29.0861ZM59.4838 5.51939C59.48 3.98172 58.2278 2.73613 56.6819 2.73237L28.2036 2.73237C26.6578 2.73613 25.4056 3.98172 25.4018 5.51939L25.4018 23.5667C25.4056 25.1044 26.6578 26.35 28.2036 26.3537L44.6849 26.3537C45.051 26.3534 45.402 26.4985 45.6601 26.7568L51.2775 32.3513L51.2775 27.7199C51.2775 26.9654 51.8924 26.3537 52.6509 26.3537L56.7025 26.3537C58.2484 26.35 59.5006 25.1044 59.5044 23.5667L59.5044 5.51939L59.4838 5.51939ZM39.5689 34.1956L39.5689 33.2393C39.4841 32.5545 38.8993 32.0401 38.2057 32.0401C37.5121 32.0401 36.9274 32.5545 36.8426 33.2393L36.8426 34.1956C36.8388 35.7333 35.5866 36.9789 34.0408 36.9827L17.5595 36.9827C17.1934 36.9824 16.8424 37.1274 16.5843 37.3857L10.9669 42.9802L10.9669 38.3557C10.9669 37.6012 10.352 36.9895 9.59349 36.9895L5.54184 36.9895C3.996 36.9857 2.74379 35.7401 2.74002 34.2025L2.74002 16.1552C2.74379 14.6175 3.996 13.3719 5.54184 13.3681L18.4041 13.3681C19.1627 13.3681 19.7776 12.7565 19.7776 12.0019C19.7776 11.2474 19.1627 10.6358 18.4041 10.6358L5.54871 10.6358C2.48581 10.6395 0.00378369 13.1084 0 16.1552L0 34.2025C0.00378369 37.2492 2.48581 39.7181 5.54871 39.7219L8.22692 39.7219L8.22692 43.7658C8.22913 44.7357 8.817 45.6094 9.71762 45.9812C10.6183 46.3529 11.6553 46.1501 12.3472 45.4667L18.1226 39.715L34.0202 39.715C37.083 39.7113 39.5651 37.2424 39.5689 34.1956ZM33.3815 14.1059C33.3815 12.9401 34.3315 11.9951 35.5035 11.9951C36.0663 11.9951 36.606 12.2175 37.0039 12.6133C37.4019 13.0092 37.6254 13.5461 37.6254 14.1059C37.6254 15.2716 36.6754 16.2166 35.5035 16.2166C34.3315 16.2166 33.3815 15.2716 33.3815 14.1059ZM42.9132 11.9951C41.7413 11.9951 40.7912 12.9401 40.7912 14.1059C40.7912 15.2716 41.7413 16.2166 42.9132 16.2166C44.0851 16.2166 45.0352 15.2716 45.0352 14.1059C45.0352 13.5461 44.8116 13.0092 44.4136 12.6133C44.0157 12.2175 43.476 11.9951 42.9132 11.9951ZM48.2009 14.1059C48.2009 12.9401 49.151 11.9951 50.3229 11.9951L50.3366 11.9951C51.5032 12.0026 52.4449 12.9454 52.4449 14.1059C52.4449 15.2716 51.4948 16.2166 50.3229 16.2166C49.151 16.2166 48.2009 15.2716 48.2009 14.1059Z" fill-rule="evenodd"/>
	</g>
</svg>
